<svg xmlns="http://www.w3.org/2000/svg" xmlns:xlink="http://www.w3.org/1999/xlink" version="1.1" x="0px" y="0px" viewBox="0 0 50 62.5" style="enable-background:new 0 0 50 50;" xml:space="preserve"><style type="text/css">
	.st0{fill:none;stroke:#000000;stroke-width:2;stroke-miterlimit:10;}
	.st1{fill:none;stroke:#000000;stroke-width:2;stroke-linejoin:round;stroke-miterlimit:10;}
	.st2{fill:none;stroke:#000000;stroke-width:2;stroke-miterlimit:10;stroke-dasharray:2,2;}
	.st3{fill:none;stroke:#000000;stroke-width:2;stroke-linecap:round;stroke-linejoin:round;stroke-miterlimit:10;}
	.st4{fill:none;stroke:#000000;stroke-width:2;stroke-linecap:round;stroke-miterlimit:10;}
	.st5{fill:none;stroke:#000000;stroke-width:2;stroke-linejoin:bevel;stroke-miterlimit:10;}
	.st6{fill:none;stroke:#000000;stroke-width:2;stroke-linejoin:round;stroke-miterlimit:10;stroke-dasharray:2,2;}
	.st7{fill:none;stroke:#000000;stroke-width:2;stroke-miterlimit:10;stroke-dasharray:2,3;}
</style><g><path class="st0" d="M45,48H5c-1.7,0-3-1.3-3-3V5c0-1.7,1.3-3,3-3h40c1.7,0,3,1.3,3,3v40C48,46.7,46.7,48,45,48z"/><line class="st0" x1="2" y1="10" x2="48" y2="10"/><line class="st0" x1="45" y1="6" x2="43" y2="6"/><line class="st0" x1="41" y1="6" x2="39" y2="6"/><line class="st0" x1="37" y1="6" x2="35" y2="6"/><line class="st0" x1="32" y1="6" x2="6" y2="6"/><rect x="15" y="14" class="st0" width="20" height="10"/><rect x="21" y="35" class="st0" width="8" height="8"/><rect x="35" y="35" class="st0" width="8" height="8"/><rect x="7" y="35" class="st0" width="8" height="8"/><line class="st0" x1="25" y1="24" x2="25" y2="35"/><polyline class="st0" points="39,35 39,30 11,30 11,35  "/></g><text x="0" y="65" fill="#000000" font-size="5px" font-weight="bold" font-family="'Helvetica Neue', Helvetica, Arial-Unicode, Arial, Sans-serif">Created by Dinosoft Labs</text><text x="0" y="70" fill="#000000" font-size="5px" font-weight="bold" font-family="'Helvetica Neue', Helvetica, Arial-Unicode, Arial, Sans-serif">from the Noun Project</text></svg>