<svg xmlns="http://www.w3.org/2000/svg" data-name="Layer 1" viewBox="0 0 100 125" x="0px" y="0px"><title>Artboard 19</title><path d="M33.43,40.61a12.85,12.85,0,0,0-.61,8.87l4.86,16.85a16,16,0,0,0,3.23,6H16.52V40.61Zm41.11-7.71H8.82V80H42a12.92,12.92,0,0,0,1,7.82H7.93A6.93,6.93,0,0,1,1,80.89V19.1a6.93,6.93,0,0,1,6.93-6.93H77.64a6.93,6.93,0,0,1,6.93,6.93v3.44A13.34,13.34,0,0,0,75,31.38Zm-59-10.37a3.5,3.5,0,1,0-3.5,3.5A3.5,3.5,0,0,0,15.56,22.54Zm10.39,0a3.5,3.5,0,1,0-3.5,3.5A3.5,3.5,0,0,0,25.95,22.54Zm10.39,0a3.5,3.5,0,1,0-3.5,3.5A3.5,3.5,0,0,0,36.34,22.54ZM82.68,64.21l7.48-26h4.69a4.16,4.16,0,0,0,4.07-5,4.22,4.22,0,0,0-4.17-3.29h-7a5.65,5.65,0,0,0-5.37,3.89l-2.24,6.86H45.28a5.25,5.25,0,0,0-5,6.71l4.86,16.85a8.42,8.42,0,0,0,8.09,6.08H74.6A8.42,8.42,0,0,0,82.68,64.21Zm-10,12.52a5.55,5.55,0,1,0,5.55,5.55A5.56,5.56,0,0,0,72.63,76.72ZM55.1,87.82a5.55,5.55,0,1,0-5.55-5.55A5.56,5.56,0,0,0,55.1,87.82Z"/><text x="0" y="115" fill="#000000" font-size="5px" font-weight="bold" font-family="'Helvetica Neue', Helvetica, Arial-Unicode, Arial, Sans-serif">Created by Gregor Cresnar</text><text x="0" y="120" fill="#000000" font-size="5px" font-weight="bold" font-family="'Helvetica Neue', Helvetica, Arial-Unicode, Arial, Sans-serif">from the Noun Project</text></svg>