<svg xmlns="http://www.w3.org/2000/svg" data-name="Layer 1" viewBox="0 0 100 125" x="0px" y="0px"><title>Artboard 20</title><path d="M19.2,65.69a21.57,21.57,0,0,1,22.34-5.05l3.11,1.09H63.77a6,6,0,0,1,6,6.21,6.19,6.19,0,0,1-6.27,5.84H52a2.34,2.34,0,0,0,0,4.68H63.52a10.91,10.91,0,0,0,11-10.38s0-.1,0-.15l9.38-10.46a6.67,6.67,0,0,1,5-2.24,6,6,0,0,1,3.87,1.38,6.25,6.25,0,0,1,.73,8.93l-20,22.82a14.88,14.88,0,0,1-11.21,5.1H30.34L24.81,99,5.05,79.75ZM38.1,23.25a20.88,20.88,0,0,1,2.12-5.11l-2.86-3.75a3.1,3.1,0,0,1,.27-4.06l2.45-2.45a3.09,3.09,0,0,1,4.05-.27l3.75,2.86A20.9,20.9,0,0,1,53,8.34l.63-4.67A3.1,3.1,0,0,1,56.68,1h3.46a3.1,3.1,0,0,1,3.06,2.67l.63,4.67a20.88,20.88,0,0,1,5.11,2.12L72.7,7.6a3.1,3.1,0,0,1,4.06.27l2.45,2.45a3.1,3.1,0,0,1,.27,4.05l-2.86,3.75a20.92,20.92,0,0,1,2.12,5.11l4.67.63a3.1,3.1,0,0,1,2.68,3.06v3.46a3.1,3.1,0,0,1-2.67,3.06l-4.67.63a20.88,20.88,0,0,1-2.12,5.11l2.86,3.75A3.1,3.1,0,0,1,79.21,47l-2.45,2.45a3.1,3.1,0,0,1-4.05.27L69,46.86A20.9,20.9,0,0,1,63.84,49l-.63,4.67a3.1,3.1,0,0,1-3.06,2.68H56.69a3.1,3.1,0,0,1-3.06-2.67L53,49a20.89,20.89,0,0,1-5.11-2.12l-3.75,2.86a3.1,3.1,0,0,1-4.06-.27L37.63,47a3.1,3.1,0,0,1-.27-4.05l2.86-3.75a20.92,20.92,0,0,1-2.12-5.11l-4.67-.63a3.1,3.1,0,0,1-2.68-3.06V26.94a3.1,3.1,0,0,1,2.67-3.06Zm13.24,5.42a7.08,7.08,0,1,0,14.16,0h0a7.08,7.08,0,1,0-14.16,0Z"/><text x="0" y="115" fill="#000000" font-size="5px" font-weight="bold" font-family="'Helvetica Neue', Helvetica, Arial-Unicode, Arial, Sans-serif">Created by Gregor Cresnar</text><text x="0" y="120" fill="#000000" font-size="5px" font-weight="bold" font-family="'Helvetica Neue', Helvetica, Arial-Unicode, Arial, Sans-serif">from the Noun Project</text></svg>