<?xml version="1.0" encoding="utf-8"?>
<!-- Generator: Adobe Illustrator 19.0.0, SVG Export Plug-In . SVG Version: 6.00 Build 0)  -->
<svg version="1.1" id="Layer_1" xmlns="http://www.w3.org/2000/svg" xmlns:xlink="http://www.w3.org/1999/xlink" x="0px" y="0px"
	 viewBox="-237 335 64 97" style="enable-background:new -237 335 64 97;" xml:space="preserve">
<style type="text/css">
	.st0{opacity:0.1;}
</style>
<path class="st0" d="M-223.7,343.6c4.8-3,10.7-4.6,17.6-4.6c9.2,0,16.8,2.2,22.8,6.5c6.1,4.3,9.1,10.8,9.1,19.3
	c0,5.2-1.3,9.6-3.9,13.2c-1.5,2.2-4.5,5-8.8,8.3l-4.3,3.3c-2.3,1.8-3.9,3.9-4.7,6.4c-0.5,1.5-0.7,3.9-0.8,7.1h-16.5
	c0.2-6.8,0.9-11.5,1.9-14.1c1.1-2.6,3.8-5.6,8.1-9l4.4-3.4c1.5-1.1,2.6-2.3,3.5-3.6c1.6-2.2,2.4-4.6,2.4-7.3c0-3-0.9-5.8-2.7-8.4
	c-1.8-2.5-5.1-3.8-9.9-3.8c-4.7,0-8,1.6-10,4.6c-2,3.1-0.3,6.3-0.3,9.7h-20.2C-235.4,356.5-231.3,348.4-223.7,343.6z M-213.6,411.5
	h18.2l1.8,17.5h-22.5L-213.6,411.5z"/>
</svg>
